<svg width="24" height="25" viewBox="0 0 24 25" fill="none" xmlns="http://www.w3.org/2000/svg">
<g clip-path="url(#clip0_10_1946)">
<path d="M21.3333 19.8333H2.66667C2.48986 19.8333 2.32029 19.7631 2.19526 19.6381C2.07024 19.513 2 19.3435 2 19.1667C2 18.9899 2.07024 18.8203 2.19526 18.6953C2.32029 18.5702 2.48986 18.5 2.66667 18.5H21.3333C21.5101 18.5 21.6797 18.5702 21.8047 18.6953C21.9298 18.8203 22 18.9899 22 19.1667C22 19.3435 21.9298 19.513 21.8047 19.6381C21.6797 19.7631 21.5101 19.8333 21.3333 19.8333Z" fill="black"/>
<path d="M21.3333 13.1668H2.66667C2.48986 13.1668 2.32029 13.0966 2.19526 12.9716C2.07024 12.8465 2 12.677 2 12.5002C2 12.3234 2.07024 12.1538 2.19526 12.0288C2.32029 11.9037 2.48986 11.8335 2.66667 11.8335H21.3333C21.5101 11.8335 21.6797 11.9037 21.8047 12.0288C21.9298 12.1538 22 12.3234 22 12.5002C22 12.677 21.9298 12.8465 21.8047 12.9716C21.6797 13.0966 21.5101 13.1668 21.3333 13.1668Z" fill="black"/>
<path d="M21.3333 6.49984H2.66667C2.48986 6.49984 2.32029 6.4296 2.19526 6.30457C2.07024 6.17955 2 6.00998 2 5.83317C2 5.65636 2.07024 5.48679 2.19526 5.36177C2.32029 5.23674 2.48986 5.1665 2.66667 5.1665H21.3333C21.5101 5.1665 21.6797 5.23674 21.8047 5.36177C21.9298 5.48679 22 5.65636 22 5.83317C22 6.00998 21.9298 6.17955 21.8047 6.30457C21.6797 6.4296 21.5101 6.49984 21.3333 6.49984Z" fill="black"/>
</g>
<defs>
<clipPath id="clip0_10_1946">
<rect width="24" height="24" fill="white" transform="translate(0 0.5)"/>
</clipPath>
</defs>
</svg>
