<svg width="59" height="58" viewBox="0 0 59 58" fill="none" xmlns="http://www.w3.org/2000/svg">
<rect x="0.5" width="58" height="58" rx="29" fill="#FFF6E0"/>
<path d="M29.5 18C27.1266 18 24.8066 18.7038 22.8332 20.0224C20.8598 21.3409 19.3217 23.2151 18.4135 25.4078C17.5052 27.6005 17.2676 30.0133 17.7306 32.3411C18.1936 34.6689 19.3365 36.8071 21.0147 38.4853C22.693 40.1635 24.8312 41.3064 27.1589 41.7694C29.4867 42.2324 31.8995 41.9948 34.0922 41.0866C36.2849 40.1783 38.1591 38.6402 39.4776 36.6668C40.7962 34.6935 41.5 32.3734 41.5 30C41.4964 26.8185 40.2309 23.7684 37.9813 21.5187C35.7316 19.2691 32.6815 18.0036 29.5 18ZM29.5 40C27.5222 40 25.5888 39.4135 23.9443 38.3147C22.2998 37.2159 21.0181 35.6541 20.2612 33.8268C19.5043 31.9996 19.3063 29.9889 19.6922 28.0491C20.078 26.1093 21.0304 24.3275 22.4289 22.9289C23.8275 21.5304 25.6093 20.578 27.5491 20.1921C29.4889 19.8063 31.4996 20.0043 33.3268 20.7612C35.1541 21.5181 36.7159 22.7998 37.8147 24.4443C38.9135 26.0888 39.5 28.0222 39.5 30C39.497 32.6513 38.4425 35.1931 36.5678 37.0678C34.6931 38.9425 32.1513 39.997 29.5 40ZM35.2075 24.2925C35.3005 24.3854 35.3742 24.4957 35.4246 24.6171C35.4749 24.7385 35.5008 24.8686 35.5008 25C35.5008 25.1314 35.4749 25.2615 35.4246 25.3829C35.3742 25.5043 35.3005 25.6146 35.2075 25.7075L30.2075 30.7075C30.1146 30.8004 30.0043 30.8741 29.8829 30.9244C29.7615 30.9747 29.6314 31.0006 29.5 31.0006C29.3686 31.0006 29.2385 30.9747 29.1171 30.9244C28.9957 30.8741 28.8854 30.8004 28.7925 30.7075C28.6996 30.6146 28.6259 30.5043 28.5756 30.3829C28.5253 30.2615 28.4995 30.1314 28.4995 30C28.4995 29.8686 28.5253 29.7385 28.5756 29.6171C28.6259 29.4957 28.6996 29.3854 28.7925 29.2925L33.7925 24.2925C33.8854 24.1995 33.9957 24.1258 34.1171 24.0754C34.2385 24.0251 34.3686 23.9992 34.5 23.9992C34.6314 23.9992 34.7615 24.0251 34.8829 24.0754C35.0043 24.1258 35.1146 24.1995 35.2075 24.2925ZM25.5 15C25.5 14.7348 25.6054 14.4804 25.7929 14.2929C25.9804 14.1054 26.2348 14 26.5 14H32.5C32.7652 14 33.0196 14.1054 33.2071 14.2929C33.3947 14.4804 33.5 14.7348 33.5 15C33.5 15.2652 33.3947 15.5196 33.2071 15.7071C33.0196 15.8946 32.7652 16 32.5 16H26.5C26.2348 16 25.9804 15.8946 25.7929 15.7071C25.6054 15.5196 25.5 15.2652 25.5 15Z" fill="#FFCC4D"/>
</svg>
