<svg width="196" height="169" viewBox="0 0 196 169" fill="none" xmlns="http://www.w3.org/2000/svg">
<path d="M-195 136.343V168.989C-168.498 168.436 -147.184 146.752 -147.184 120.085V55.3471C-147.184 39.9238 -137.275 32.6239 -130.913 32.6239C-124.55 32.6239 -114.641 39.9238 -114.641 55.3471V113.653C-114.641 141.347 -95.3923 169 -65.7867 169C-36.1812 169 -16.9321 141.347 -16.9321 113.653V55.3471C-16.9321 39.9238 -7.02325 32.6239 -0.660782 32.6239C5.70169 32.6239 15.6105 39.9238 15.6105 55.3471V113.653C15.6105 141.347 34.8596 169 64.4651 169C94.0707 169 113.32 141.347 113.32 113.653V55.3471C113.32 39.9238 123.229 32.6239 129.591 32.6239C135.954 32.6239 145.862 39.9239 145.862 55.3471V113.653C145.862 141.347 165.111 169 194.717 169C195.147 169 195.575 168.994 196 168.983V136.283C195.56 136.345 195.131 136.376 194.717 136.376C188.355 136.376 178.446 129.076 178.446 113.653V55.3471C178.446 27.6533 159.197 0 129.591 0C99.9855 0 80.7364 27.6534 80.7364 55.3471V113.653C80.7364 129.076 70.8276 136.376 64.4651 136.376C58.1027 136.376 48.1938 129.076 48.1938 113.653V55.3471C48.1938 27.6534 28.9448 0 -0.660782 0C-30.2664 0 -49.5154 27.6534 -49.5154 55.3471V113.653C-49.5154 129.076 -59.4242 136.376 -65.7867 136.376C-72.1492 136.376 -82.058 129.076 -82.058 113.653V55.3471C-82.058 27.6534 -101.307 0 -130.913 0C-160.518 0 -179.767 27.6534 -179.767 55.3471V120.085C-179.767 128.733 -186.498 135.807 -195 136.343Z" fill="#FFCC4D"/>
</svg>
