<svg width="20" height="20" viewBox="0 0 20 20" fill="none" xmlns="http://www.w3.org/2000/svg">
<g opacity="0.5">
<path d="M20 10.0004C20 14.8109 16.2562 18.7878 11.3926 19.4332C10.9379 19.4933 10.4726 19.5246 10.0004 19.5246C9.45521 19.5246 8.91988 19.4832 8.39856 19.4032C3.63662 18.673 0 14.7408 0 10.0004C0 4.74015 4.47746 0.475586 9.99965 0.475586C15.5218 0.475586 20 4.74015 20 10.0004Z" fill="#1877F2"/>
<path d="M11.3906 8.12285V10.1977H14.0855L13.6587 12.9927H11.3906V19.4323C10.9358 19.4923 10.4706 19.5237 9.9983 19.5237C9.45316 19.5237 8.91782 19.4823 8.3965 19.4022V12.9927H5.91113V10.1977H8.3965V7.65902C8.3965 6.08401 9.73694 4.80664 11.3913 4.80664V4.80798C11.3962 4.80798 11.4004 4.80664 11.4053 4.80664H14.0862V7.22389H12.3344C11.8138 7.22389 11.3913 7.62632 11.3913 8.12218L11.3906 8.12285Z" fill="white"/>
</g>
</svg>
