<svg width="20" height="20" viewBox="0 0 20 20" fill="none" xmlns="http://www.w3.org/2000/svg">
<g opacity="0.5">
<path d="M10.0228 0.475586H9.97723C4.46696 0.475586 0 4.73015 0 9.97841V10.0218C0 15.2701 4.46696 19.5246 9.97723 19.5246H10.0228C15.533 19.5246 20 15.2701 20 10.0218V9.97841C20 4.73015 15.533 0.475586 10.0228 0.475586Z" fill="url(#paint0_linear_33_4246)"/>
<path d="M13.0929 4.35156H6.9043C5.19459 4.35156 3.80371 5.67631 3.80371 7.30472V12.6972C3.80371 14.3256 5.19459 15.6503 6.9043 15.6503H13.0929C14.8026 15.6503 16.1934 14.3256 16.1934 12.6972V7.30472C16.1934 5.67631 14.8026 4.35156 13.0929 4.35156ZM4.8975 7.30472C4.8975 6.25093 5.79789 5.39334 6.9043 5.39334H13.0929C14.1993 5.39334 15.0997 6.25093 15.0997 7.30472V12.6972C15.0997 13.751 14.1993 14.6085 13.0929 14.6085H6.9043C5.79789 14.6085 4.8975 13.751 4.8975 12.6972V7.30472Z" fill="white"/>
<path d="M10.0032 12.7488C11.5931 12.7488 12.8873 11.5168 12.8873 10.0018C12.8873 8.48687 11.5938 7.25488 10.0032 7.25488C8.41263 7.25488 7.11914 8.48687 7.11914 10.0018C7.11914 11.5168 8.41263 12.7488 10.0032 12.7488ZM10.0032 8.29733C10.9905 8.29733 11.7935 9.06215 11.7935 10.0025C11.7935 10.9428 10.9905 11.7076 10.0032 11.7076C9.01593 11.7076 8.21293 10.9428 8.21293 10.0025C8.21293 9.06215 9.01593 8.29733 10.0032 8.29733Z" fill="white"/>
<path d="M13.1501 7.69607C13.5782 7.69607 13.9272 7.36438 13.9272 6.95595C13.9272 6.54751 13.5789 6.21582 13.1501 6.21582C12.7213 6.21582 12.373 6.54751 12.373 6.95595C12.373 7.36438 12.7213 7.69607 13.1501 7.69607Z" fill="white"/>
</g>
<defs>
<linearGradient id="paint0_linear_33_4246" x1="2.92191" y1="16.7416" x2="16.389" y2="2.60291" gradientUnits="userSpaceOnUse">
<stop stop-color="#FAAD4F"/>
<stop offset="0.35" stop-color="#DD2A7B"/>
<stop offset="0.62" stop-color="#9537B0"/>
<stop offset="1" stop-color="#515BD4"/>
</linearGradient>
</defs>
</svg>
