<svg width="24" height="24" viewBox="0 0 24 24" fill="none" xmlns="http://www.w3.org/2000/svg">
<path d="M22 3H2.00002C0.896953 3 0 3.89695 0 5.00002V19C0 20.103 0.896953 21 2.00002 21H22C23.103 21 24 20.103 24 19V5.00002C24 3.89695 23.103 3 22 3ZM2.00002 3.99998H22C22.0737 3.99998 22.1386 4.02684 22.2078 4.04203C20.4763 5.62673 14.7348 10.8792 12.7256 12.6894C12.5684 12.831 12.315 13 12 13C11.6851 13 11.4317 12.831 11.274 12.689C9.26494 10.879 3.52317 5.62627 1.79194 4.04213C1.86122 4.02694 1.92628 3.99998 2.00002 3.99998ZM0.999984 19V5.00002C0.999984 4.90205 1.02952 4.81317 1.05595 4.72364C2.3812 5.93658 6.38733 9.60145 8.98495 11.9636C6.39577 14.1877 2.38861 17.9868 1.05281 19.2606C1.02923 19.1756 0.999984 19.0924 0.999984 19ZM22 20H2.00002C1.92014 20 1.84912 19.9722 1.77455 19.9544C3.15488 18.6385 7.18753 14.8175 9.7312 12.6414C10.0628 12.9422 10.3657 13.2165 10.6045 13.4317C11.0166 13.8038 11.499 14 12 14C12.501 14 12.9834 13.8037 13.395 13.4321C13.6339 13.2169 13.937 12.9424 14.2688 12.6414C16.8126 14.8173 20.8447 18.638 22.2255 19.9544C22.1509 19.9722 22.08 20 22 20ZM23 19C23 19.0924 22.9708 19.1756 22.9472 19.2606C21.6109 17.9862 17.6042 14.1875 15.0151 11.9637C17.6128 9.6015 21.6183 5.93695 22.944 4.72355C22.9705 4.81308 23 4.902 23 4.99997V19Z" fill="#FFCC4D"/>
</svg>
