<svg width="20" height="20" viewBox="0 0 20 20" fill="none" xmlns="http://www.w3.org/2000/svg">
<g opacity="0.5">
<path d="M10.0228 0.475586H9.97723C4.46696 0.475586 0 4.73015 0 9.97841V10.0218C0 15.2701 4.46696 19.5246 9.97723 19.5246H10.0228C15.533 19.5246 20 15.2701 20 10.0218V9.97841C20 4.73015 15.533 0.475586 10.0228 0.475586Z" fill="#007EBB"/>
<path d="M4.76948 6.80837C4.50602 6.57545 4.375 6.28714 4.375 5.94411C4.375 5.60108 4.50672 5.30009 4.76948 5.0665C5.03295 4.83359 5.37209 4.7168 5.7876 4.7168C6.20311 4.7168 6.52894 4.83359 6.7917 5.0665C7.05517 5.29942 7.18619 5.5924 7.18619 5.94411C7.18619 6.29582 7.05447 6.57545 6.7917 6.80837C6.52824 7.04128 6.194 7.15807 5.7876 7.15807C5.3812 7.15807 5.03295 7.04128 4.76948 6.80837ZM6.96477 8.14446V15.2854H4.59571V8.14446H6.96477Z" fill="white"/>
<path d="M14.8504 8.84968C15.3668 9.38359 15.6247 10.1164 15.6247 11.0494V15.1591H13.3748V11.339C13.3748 10.8685 13.2465 10.5028 12.9908 10.2425C12.735 9.98223 12.3903 9.85142 11.9587 9.85142C11.527 9.85142 11.1823 9.98156 10.9265 10.2425C10.6708 10.5028 10.5425 10.8685 10.5425 11.339V15.1591H8.2793V8.12424H10.5425V9.05724C10.7717 8.74624 11.0807 8.50064 11.4689 8.31978C11.8571 8.13892 12.2936 8.04883 12.7792 8.04883C13.6438 8.04883 14.3347 8.31578 14.8504 8.84968Z" fill="white"/>
</g>
</svg>
