<svg width="130" height="35" viewBox="0 0 130 35" fill="none" xmlns="http://www.w3.org/2000/svg">
<g clip-path="url(#clip0_0_804)">
<path d="M22.3255 18.8992C22.3255 18.8992 20.3997 6.25467 0.578125 4.58594C0.578125 4.58594 2.82778 8.30709 3.21648 11.3591C3.21648 11.3591 2.78471 16.9276 7.62429 17.0409C7.61876 17.0357 21.9207 17.857 22.3255 18.8992Z" fill="#EE2A7B"/>
<path d="M10.7213 27.5733C10.7213 27.5733 0.519359 18.8776 6.55071 18.4023C8.68742 18.4945 10.8183 18.6296 12.9438 18.8022C15.2584 18.9857 17.6108 18.9208 19.8822 19.4932C20.3244 19.6014 20.8962 19.72 21.2631 20.0118C21.9268 20.5408 21.4843 20.7792 20.9989 21.3621C19.596 23.0421 18.3879 24.884 16.8392 26.4336C15.9599 27.3201 14.9134 28.3731 13.7048 28.7887C12.4421 29.2207 11.6976 28.2806 10.7213 27.5733Z" fill="#EE2A7B"/>
<path d="M15.7705 0.108154C16.4125 0.345761 16.8493 2.14411 16.9789 2.67904C17.2379 3.77022 17.2702 4.89901 17.1461 6.01165C16.9412 7.88038 16.4772 8.94475 18.2631 10.1651C18.2631 10.1651 23.059 14.216 22.9296 16.9707C22.9296 16.9599 25.2925 3.59185 15.7705 0.108154Z" fill="#EE2A7B"/>
<path d="M28.9018 34.9999C28.5025 34.7082 27.9741 34.5353 27.3156 34.4814C26.6574 34.4277 26.1018 34.4002 25.6487 34.4002C25.1955 34.4002 24.7854 34.1633 24.4295 33.6818C24.0734 33.2017 23.8955 32.4179 23.8955 31.3275V11.6342C23.9171 11.6126 24.0247 11.4828 24.2137 11.2507C24.4025 11.0184 24.5751 10.8347 24.7316 10.6997C24.8881 10.5648 25.1739 10.3756 25.6001 10.1324C26.021 9.88943 26.4905 9.70057 27.003 9.56546C27.5155 9.43052 28.2061 9.31171 29.0692 9.19824C29.9377 9.08461 30.9142 9.03101 32.0039 9.03101C35.4244 9.03101 37.8845 9.77079 39.3736 11.2508C40.8625 12.7307 41.6069 15.1936 41.6069 18.6448C41.6069 20.3137 41.3426 21.7618 40.8083 22.9816C40.2742 24.2085 39.5568 25.1483 38.6559 25.8014C37.755 26.4608 36.8001 26.936 35.791 27.2383C34.7822 27.541 33.7087 27.6919 32.5756 27.6919C31.0436 27.6919 29.8188 27.5358 28.9072 27.2225V34.9999H28.9018ZM28.9018 18.3104V23.047C29.2578 23.1605 29.6409 23.247 30.051 23.3172C30.461 23.3821 30.9787 23.4418 31.5993 23.4849C32.2197 23.5289 32.8023 23.4626 33.3366 23.2844C33.8707 23.1066 34.3831 22.853 34.8686 22.5174C35.3597 22.1831 35.7481 21.6486 36.0341 20.914C36.3253 20.1788 36.4655 19.3047 36.4655 18.2778C36.4655 17.4353 36.3255 16.7006 36.0502 16.0741C35.7695 15.453 35.4514 14.9724 35.0846 14.6373C34.7178 14.3024 34.2377 14.054 33.6333 13.8864C33.0345 13.719 32.5327 13.622 32.1336 13.5839C31.7342 13.5463 31.2327 13.568 30.6337 13.6328C30.0349 13.6974 29.6678 13.7463 29.5331 13.7679C29.3981 13.7896 29.1989 13.8324 28.9343 13.9029H28.902C28.875 13.9029 28.875 15.3719 28.9018 18.3104Z" fill="black"/>
<path d="M47.1047 13.7732C47.1047 13.7083 47.094 13.6164 47.0724 13.5083C47.0508 13.4004 47.0454 13.179 47.0561 12.8603C47.067 12.5362 47.0993 12.2336 47.1587 11.942C47.2126 11.6559 47.3259 11.3262 47.4931 10.9592C47.6605 10.5916 47.8816 10.2786 48.1623 10.0247C48.4427 9.77083 48.8202 9.5547 49.2952 9.37649C49.7752 9.19844 50.3363 9.11192 50.9782 9.11192H51.9116C52.4891 9.0903 53.0828 9.0903 53.6975 9.11192C54.307 9.13355 54.9169 9.16051 55.5318 9.19296C56.1415 9.2254 56.7403 9.32242 57.3175 9.47382C57.895 9.63055 58.4451 9.81973 58.9683 10.0409C59.4919 10.2623 59.9666 10.581 60.4035 10.9915C60.8351 11.4019 61.2128 11.8773 61.5365 12.4119C61.86 12.9465 62.1085 13.6056 62.2863 14.3833C62.4644 15.161 62.556 16.0417 62.556 17.0191V17.2515V17.4837V17.7484V17.9806V18.2449V18.515V18.8178V19.1527V19.4876V19.8875V20.4222V20.6865C62.556 21.5996 62.4533 22.4309 62.2541 23.1713C62.0544 23.9167 61.8064 24.5217 61.5043 24.9911C61.2021 25.4617 60.8299 25.8718 60.3873 26.2287C59.945 26.5851 59.5243 26.8448 59.1357 27.0113C58.7475 27.1791 58.2941 27.3142 57.787 27.4111C57.2743 27.5136 56.8804 27.573 56.6054 27.5946C56.3302 27.6164 56.0013 27.6274 55.6236 27.6274H51.0216C50.9568 27.6274 50.8544 27.6224 50.7194 27.6117C50.5845 27.6012 50.3363 27.5685 49.9697 27.5092C49.6028 27.455 49.2521 27.3686 48.9176 27.2614C48.583 27.153 48.2108 26.9635 47.8009 26.7097C47.3907 26.4555 47.0399 26.1532 46.7485 25.8073C46.4573 25.4617 46.2144 25.0134 46.015 24.4568C45.8153 23.9009 45.7129 23.279 45.7129 22.588C45.7129 21.3617 45.8694 20.3357 46.1824 19.4981C46.4948 18.6668 46.9645 18.018 47.601 17.5647C48.2321 17.1109 48.939 16.7921 49.7159 16.6139C50.4928 16.4359 51.4368 16.3494 52.5483 16.3494C54.4798 16.3494 55.8014 16.2199 56.4972 15.9658C57.1987 15.7118 57.5494 15.3176 57.5494 14.783C57.5494 14.0269 56.8211 13.5136 55.3646 13.2492C53.9078 12.9791 52.365 12.9251 50.7301 13.0818C49.0848 13.2277 47.8816 13.4598 47.1047 13.7732ZM57.6735 18.8126C57.5819 18.9259 57.4577 19.0551 57.2905 19.2123C57.1233 19.3685 56.751 19.5742 56.1735 19.8277C55.5965 20.0868 54.9977 20.2111 54.3717 20.2111C53.2818 20.2111 52.4025 20.3462 51.723 20.6111C51.0429 20.8758 50.7085 21.2535 50.7085 21.7451C50.7085 22.3231 50.9514 22.7552 51.4425 23.0469C51.9279 23.3387 52.9097 23.4848 54.3772 23.4848C54.976 23.4848 55.44 23.4795 55.7637 23.4688C56.0874 23.4583 56.3841 23.3707 56.6646 23.2202C56.9451 23.0638 57.1394 22.9169 57.2471 22.7873C57.3604 22.6524 57.4521 22.3717 57.5335 21.9339C57.6087 21.5024 57.6575 21.0869 57.6682 20.6818C57.6627 20.2815 57.6735 19.6607 57.6735 18.8126Z" fill="black"/>
<path d="M77.6087 23.2846C77.9206 24.2624 77.9639 25.1638 77.7434 25.9851C77.5223 26.812 77.144 27.3524 76.6097 27.6225C75.4553 27.978 74.3283 28.0812 73.2269 27.941C72.1266 27.7943 71.1495 27.4927 70.2928 27.0222C69.4345 26.5578 68.7439 25.8774 68.2096 24.9856C67.6764 24.0946 67.412 23.0846 67.412 21.9511V7.59956C67.3898 6.90837 67.4981 6.33582 67.7461 5.88208C67.9894 5.42818 68.3561 5.09873 68.8471 4.89905C69.338 4.69937 69.8607 4.56944 70.4171 4.51553C70.9724 4.4613 71.6416 4.45612 72.4182 4.49938V9.33898H78.1534V9.58724C78.1534 9.6899 78.1312 9.89491 78.0879 10.2082C78.0447 10.5217 77.9753 10.8188 77.8889 11.1102C77.7972 11.4019 77.6518 11.7152 77.441 12.0608C77.2303 12.4064 76.9772 12.6979 76.6908 12.9463C76.4 13.1951 76.011 13.3946 75.5255 13.5623C75.0354 13.7298 74.4895 13.8106 73.8911 13.8106C73.3568 13.8106 72.8663 13.8214 72.4232 13.843L72.4559 21.5563C72.4349 22.1553 72.5581 22.62 72.8231 22.9392C73.0872 23.263 73.449 23.4518 73.9073 23.5056C74.3662 23.5606 74.8194 23.5763 75.2729 23.539C75.726 23.5056 76.1951 23.4581 76.676 23.3876C77.1336 23.3174 77.4516 23.2846 77.6087 23.2846Z" fill="black"/>
<path d="M87.5723 12.4338C87.5723 11.3428 87.3941 10.5596 87.0386 10.079C86.6824 9.59817 86.2776 9.36056 85.8189 9.36056C85.3658 9.36056 84.8104 9.33376 84.1518 9.27953C83.494 9.22545 82.971 9.05242 82.5664 8.76074V27.6224C84.1903 27.7079 85.4363 27.5511 86.315 27.1359C87.1948 26.7255 87.6096 25.8501 87.5669 24.5165V12.4336H87.5723V12.4338Z" fill="black"/>
<path d="M104.712 9.10107C104.691 9.14449 104.696 9.3821 104.728 9.80308C104.761 10.2245 104.755 10.6349 104.712 11.0239C104.669 11.4127 104.577 11.8285 104.449 12.277C104.319 12.7252 104.044 13.0763 103.633 13.3463C103.223 13.6112 102.695 13.7463 102.047 13.7463C101.115 13.7463 100.392 13.7785 99.8787 13.8488C99.3655 13.9136 98.9124 14.0809 98.5142 14.3512C98.1149 14.6159 97.845 14.9994 97.7155 15.4854C97.5804 15.9771 97.5162 16.6413 97.5162 17.4893V28.1731C97.117 27.8814 96.5877 27.6545 95.9346 27.4876C95.2824 27.3192 94.7206 27.1893 94.2677 27.1034C93.8095 27.0169 93.4045 26.752 93.0538 26.3207C92.6976 25.8881 92.5195 25.2558 92.5195 24.4357V15.4909C92.5195 15.3561 92.526 15.1721 92.5364 14.94C92.547 14.7077 92.585 14.3834 92.6544 13.9733C92.7199 13.5626 92.8328 13.1521 92.9896 12.7363C93.1456 12.3257 93.3787 11.8992 93.6903 11.451C94.0035 11.0079 94.3818 10.6192 94.8244 10.2841C95.2671 9.94916 95.8436 9.67393 96.5404 9.45231C97.2411 9.23085 98.0242 9.11737 98.892 9.11737H102.194H103.36H103.742H104.714V9.10123H104.712V9.10107Z" fill="black"/>
<path d="M119.614 23.2846C119.927 24.2624 119.97 25.1638 119.749 25.9851C119.528 26.812 119.151 27.3524 118.616 27.6225C117.46 27.978 116.334 28.0812 115.233 27.941C114.132 27.7943 113.155 27.4927 112.298 27.0222C111.44 26.5578 110.75 25.8774 110.216 24.9856C109.682 24.0938 109.418 23.0846 109.418 21.9511V7.59956C109.396 6.90837 109.504 6.33582 109.752 5.88208C109.995 5.42818 110.362 5.09873 110.853 4.89905C111.344 4.69937 111.861 4.56944 112.417 4.51553C112.972 4.4613 113.642 4.45612 114.418 4.49938V9.33898H120.154V9.58724C120.154 9.6899 120.132 9.89491 120.088 10.2082C120.045 10.5217 119.976 10.8188 119.889 11.1102C119.803 11.4019 119.652 11.7152 119.441 12.0608C119.23 12.4064 118.978 12.6979 118.691 12.9463C118.404 13.1951 118.011 13.3946 117.525 13.5623C117.035 13.7298 116.49 13.8106 115.891 13.8106C115.357 13.8106 114.866 13.8214 114.423 13.843L114.456 21.5563C114.435 22.1553 114.559 22.62 114.824 22.9392C115.087 23.263 115.449 23.4518 115.908 23.5056C116.367 23.5606 116.82 23.5763 117.273 23.539C117.726 23.5056 118.196 23.4581 118.675 23.3876C119.144 23.3174 119.457 23.2846 119.614 23.2846Z" fill="black"/>
<path d="M129.584 12.4338C129.584 11.3428 129.406 10.5596 129.05 10.079C128.694 9.59817 128.289 9.36056 127.831 9.36056C127.371 9.36056 126.821 9.33376 126.164 9.27953C125.505 9.22545 124.981 9.05242 124.582 8.76074V27.6224C126.206 27.7079 127.452 27.5511 128.332 27.1359C129.211 26.7255 129.627 25.8501 129.584 24.5165V12.4336H129.584V12.4338Z" fill="black"/>
</g>
<defs>
<clipPath id="clip0_0_804">
<rect width="130" height="35" fill="white"/>
</clipPath>
</defs>
</svg>
