<svg width="59" height="58" viewBox="0 0 59 58" fill="none" xmlns="http://www.w3.org/2000/svg">
<rect x="0.5" width="58" height="58" rx="29" fill="#FFF6E0"/>
<path d="M40.7029 16H33.0217C32.7828 15.9998 32.5536 16.0942 32.3842 16.2625L17.0279 31.6188C16.6917 31.9566 16.5029 32.4139 16.5029 32.8906C16.5029 33.3673 16.6917 33.8246 17.0279 34.1625L24.3404 41.475C24.6783 41.8112 25.1356 42 25.6123 42C26.089 42 26.5463 41.8112 26.8842 41.475L42.2342 26.125C42.4025 25.9555 42.4969 25.7263 42.4967 25.4875V17.8C42.4978 17.5638 42.4523 17.3298 42.3626 17.1113C42.273 16.8928 42.141 16.6941 41.9743 16.5268C41.8075 16.3596 41.6094 16.2269 41.3912 16.1365C41.173 16.046 40.9391 15.9997 40.7029 16Z" stroke="#FFCC4D" stroke-width="2" stroke-linecap="round" stroke-linejoin="round"/>
<path d="M37.5 23C37.1044 23 36.7178 22.8827 36.3889 22.6629C36.06 22.4432 35.8036 22.1308 35.6522 21.7654C35.5009 21.3999 35.4613 20.9978 35.5384 20.6098C35.6156 20.2219 35.8061 19.8655 36.0858 19.5858C36.3655 19.3061 36.7219 19.1156 37.1098 19.0384C37.4978 18.9613 37.8999 19.0009 38.2654 19.1522C38.6308 19.3036 38.9432 19.56 39.1629 19.8889C39.3827 20.2178 39.5 20.6044 39.5 21C39.5 21.5304 39.2893 22.0391 38.9142 22.4142C38.5391 22.7893 38.0304 23 37.5 23Z" fill="#FFCC4D"/>
</svg>

