<svg width="58" height="58" viewBox="0 0 58 58" fill="none" xmlns="http://www.w3.org/2000/svg">
<rect width="58" height="58" rx="29" fill="#FFF6E0"/>
<path fill-rule="evenodd" clip-rule="evenodd" d="M29 24C27.6739 24 26.4021 24.5268 25.4645 25.4645C24.5268 26.4021 24 27.6739 24 29C24 30.3261 24.5268 31.5979 25.4645 32.5355C26.4021 33.4732 27.6739 34 29 34C30.3261 34 31.5979 33.4732 32.5355 32.5355C33.4732 31.5979 34 30.3261 34 29C34 27.6739 33.4732 26.4021 32.5355 25.4645C31.5979 24.5268 30.3261 24 29 24ZM26 29C26 28.2044 26.3161 27.4413 26.8787 26.8787C27.4413 26.3161 28.2044 26 29 26C29.7956 26 30.5587 26.3161 31.1213 26.8787C31.6839 27.4413 32 28.2044 32 29C32 29.7956 31.6839 30.5587 31.1213 31.1213C30.5587 31.6839 29.7956 32 29 32C28.2044 32 27.4413 31.6839 26.8787 31.1213C26.3161 30.5587 26 29.7956 26 29Z" fill="#FFCC4D"/>
<path fill-rule="evenodd" clip-rule="evenodd" d="M28.9667 14.6667C28.3734 14.6667 27.8787 14.6667 27.4734 14.6934C27.059 14.7101 26.6503 14.7957 26.264 14.9467C25.819 15.1309 25.4147 15.4008 25.074 15.7413C24.7334 16.0817 24.4631 16.4859 24.2787 16.9307C24.0854 17.3974 24.0334 17.8907 24.012 18.4267C24.0096 18.6227 23.9576 18.8149 23.8609 18.9853C23.7641 19.1558 23.6258 19.2989 23.4587 19.4014C23.2865 19.4952 23.0933 19.5437 22.8972 19.5426C22.7011 19.5414 22.5085 19.4906 22.3374 19.3947C21.8627 19.1441 21.4094 18.9427 20.908 18.8761C20.4306 18.8133 19.9455 18.8451 19.4804 18.9698C19.0153 19.0945 18.5793 19.3096 18.1974 19.6027C17.8739 19.8621 17.5959 20.1734 17.3747 20.5241C17.148 20.8627 16.9 21.2907 16.604 21.8041L16.5707 21.8627C16.2734 22.3761 16.0267 22.8041 15.848 23.1694C15.6614 23.5507 15.5147 23.9267 15.4614 24.3427C15.3342 25.3067 15.5951 26.2818 16.1867 27.0534C16.4947 27.4547 16.896 27.7467 17.3494 28.0321C17.5182 28.1322 17.6589 28.2735 17.7582 28.4428C17.8576 28.6121 17.9123 28.8039 17.9174 29.0001C17.9123 29.1963 17.8576 29.388 17.7582 29.5573C17.6589 29.7266 17.5182 29.868 17.3494 29.9681C16.896 30.2534 16.496 30.5454 16.1867 30.9467C15.8935 31.3287 15.6784 31.7647 15.5538 32.2298C15.4291 32.6949 15.3972 33.18 15.46 33.6574C15.5147 34.0734 15.66 34.4494 15.8467 34.8307C16.0267 35.1961 16.2734 35.6241 16.5707 36.1374L16.604 36.1961C16.9 36.7094 17.148 37.1374 17.3747 37.4761C17.6107 37.8267 17.864 38.1427 18.1974 38.3961C18.5792 38.6895 19.0152 38.9048 19.4803 39.0297C19.9454 39.1546 20.4305 39.1867 20.908 39.1241C21.4094 39.0574 21.8627 38.8574 22.3374 38.6054C22.5083 38.5098 22.7007 38.4591 22.8965 38.458C23.0923 38.4568 23.2853 38.5052 23.4574 38.5987C23.6258 38.7 23.7654 38.8428 23.8627 39.0134C23.9601 39.1841 24.012 39.3769 24.0134 39.5734C24.0334 40.1094 24.0854 40.6027 24.28 41.0694C24.4641 41.5144 24.7341 41.9188 25.0745 42.2594C25.415 42.6001 25.8191 42.8703 26.264 43.0547C26.6507 43.2147 27.0507 43.2774 27.4734 43.3054C27.8787 43.3334 28.3734 43.3334 28.9667 43.3334H29.0334C29.6267 43.3334 30.1214 43.3334 30.5267 43.3067C30.9507 43.2774 31.3494 43.2147 31.736 43.0534C32.181 42.8693 32.5854 42.5993 32.926 42.2589C33.2667 41.9185 33.5369 41.5143 33.7214 41.0694C33.9147 40.6027 33.9667 40.1094 33.988 39.5734C33.9902 39.3772 34.0421 39.1848 34.1388 39.0141C34.2356 38.8434 34.3741 38.7 34.5414 38.5974C34.7137 38.5039 34.907 38.4555 35.1031 38.4569C35.2992 38.4583 35.4917 38.5094 35.6627 38.6054C36.1374 38.8561 36.5907 39.0574 37.092 39.1227C38.056 39.2499 39.0311 38.989 39.8027 38.3974C40.136 38.1414 40.3894 37.8267 40.6254 37.4761C40.852 37.1374 41.1 36.7094 41.396 36.1961L41.4294 36.1374C41.7267 35.6241 41.9734 35.1961 42.152 34.8307C42.3387 34.4494 42.4854 34.0721 42.5387 33.6574C42.6659 32.6934 42.405 31.7184 41.8134 30.9467C41.5054 30.5454 41.104 30.2534 40.6507 29.9681C40.4818 29.868 40.3412 29.7266 40.2418 29.5573C40.1425 29.388 40.0877 29.1963 40.0827 29.0001C40.0827 28.6294 40.2854 28.2614 40.6507 28.0321C41.104 27.7467 41.504 27.4547 41.8134 27.0534C42.1065 26.6714 42.3216 26.2355 42.4463 25.7704C42.571 25.3053 42.6028 24.8202 42.54 24.3427C42.4772 23.9329 42.3465 23.5363 42.1534 23.1694C41.9256 22.7265 41.6842 22.2907 41.4294 21.8627L41.396 21.8041C41.1525 21.3695 40.8955 20.9426 40.6254 20.5241C40.4041 20.1739 40.1261 19.863 39.8027 19.6041C39.4208 19.3107 38.9849 19.0954 38.5198 18.9704C38.0547 18.8455 37.5695 18.8135 37.092 18.8761C36.5907 18.9427 36.1374 19.1427 35.6627 19.3947C35.4917 19.4903 35.2994 19.541 35.1036 19.5422C34.9077 19.5434 34.7148 19.4949 34.5427 19.4014C34.3751 19.2992 34.2362 19.1562 34.139 18.9858C34.0418 18.8153 33.9894 18.623 33.9867 18.4267C33.9667 17.8907 33.9147 17.3974 33.72 16.9307C33.5359 16.4857 33.2659 16.0814 32.9255 15.7407C32.5851 15.4001 32.1809 15.1298 31.736 14.9454C31.3494 14.7854 30.9494 14.7227 30.5267 14.6947C30.1214 14.6667 29.6267 14.6667 29.0334 14.6667H28.9667ZM27.0294 16.7934C27.132 16.7507 27.288 16.7121 27.6094 16.6894C27.9387 16.6667 28.3654 16.6667 29 16.6667C29.6347 16.6667 30.0614 16.6667 30.3907 16.6894C30.712 16.7121 30.868 16.7507 30.9707 16.7934C31.38 16.9627 31.704 17.2867 31.8734 17.6961C31.9267 17.8241 31.9707 18.0254 31.988 18.5014C32.028 19.5574 32.5734 20.5747 33.5414 21.1334C34.5094 21.6921 35.6627 21.6561 36.5974 21.1627C37.0187 20.9401 37.2147 20.8774 37.3534 20.8601C37.7914 20.8022 38.2346 20.9207 38.5854 21.1894C38.6734 21.2574 38.7854 21.3734 38.9654 21.6401C39.1507 21.9147 39.364 22.2841 39.6814 22.8334C39.9987 23.3827 40.2107 23.7534 40.356 24.0494C40.4987 24.3387 40.5427 24.4934 40.556 24.6041C40.6139 25.0422 40.4955 25.4853 40.2267 25.8361C40.1414 25.9467 39.9894 26.0854 39.5867 26.3387C38.6907 26.9014 38.0827 27.8827 38.0827 29.0001C38.0827 30.1174 38.6907 31.0987 39.5867 31.6614C39.9894 31.9147 40.1414 32.0534 40.2267 32.1641C40.496 32.5147 40.6134 32.9574 40.556 33.3961C40.5427 33.5067 40.4974 33.6627 40.356 33.9507C40.2107 34.2481 39.9987 34.6174 39.6814 35.1667C39.364 35.7161 39.1494 36.0854 38.9654 36.3601C38.7854 36.6267 38.6734 36.7427 38.5854 36.8107C38.2346 37.0795 37.7914 37.198 37.3534 37.1401C37.2147 37.1227 37.02 37.0601 36.5974 36.8374C35.664 36.3441 34.5094 36.3067 33.5414 36.8654C32.5734 37.4241 32.028 38.4427 31.988 39.4987C31.9707 39.9747 31.9267 40.1761 31.8734 40.3041C31.7896 40.5065 31.6668 40.6904 31.5119 40.8453C31.357 41.0001 31.1731 41.123 30.9707 41.2067C30.868 41.2494 30.712 41.2881 30.3907 41.3107C30.0614 41.3334 29.6347 41.3334 29 41.3334C28.3654 41.3334 27.9387 41.3334 27.6094 41.3107C27.288 41.2881 27.132 41.2494 27.0294 41.2067C26.827 41.123 26.6431 41.0001 26.4882 40.8453C26.3333 40.6904 26.2105 40.5065 26.1267 40.3041C26.0734 40.1761 26.0294 39.9747 26.012 39.4987C25.972 38.4427 25.4267 37.4254 24.4587 36.8667C23.4907 36.3081 22.3374 36.3441 21.4027 36.8374C20.9814 37.0601 20.7854 37.1227 20.6467 37.1401C20.2086 37.198 19.7655 37.0795 19.4147 36.8107C19.3267 36.7427 19.2147 36.6267 19.0347 36.3601C18.7839 35.9697 18.5451 35.5718 18.3187 35.1667C18.0014 34.6174 17.7894 34.2467 17.644 33.9507C17.5014 33.6614 17.4574 33.5067 17.444 33.3961C17.3861 32.958 17.5046 32.5148 17.7734 32.1641C17.8587 32.0534 18.0107 31.9147 18.4134 31.6614C19.3094 31.0987 19.9174 30.1174 19.9174 29.0001C19.9174 27.8827 19.3094 26.9014 18.4134 26.3387C18.0107 26.0854 17.8587 25.9467 17.7734 25.8361C17.5046 25.4853 17.3861 25.0422 17.444 24.6041C17.4574 24.4934 17.5027 24.3374 17.644 24.0494C17.7894 23.7521 18.0014 23.3827 18.3187 22.8334C18.636 22.2841 18.8507 21.9147 19.0347 21.6401C19.2147 21.3734 19.3267 21.2574 19.4147 21.1894C19.7655 20.9207 20.2086 20.8022 20.6467 20.8601C20.7854 20.8774 20.98 20.9401 21.4027 21.1627C22.336 21.6561 23.4907 21.6934 24.4587 21.1334C25.4267 20.5747 25.972 19.5574 26.012 18.5014C26.0294 18.0254 26.0734 17.8241 26.1267 17.6961C26.296 17.2867 26.62 16.9627 27.0294 16.7934Z" fill="#FFCC4D"/>
</svg>
