<svg width="24" height="24" viewBox="0 0 24 24" fill="none" xmlns="http://www.w3.org/2000/svg">
<path d="M13.0031 12.3973C13.0031 15.376 10.5458 17.7946 7.50157 17.7946C4.45737 17.7946 2 15.376 2 12.3973C2 9.41867 4.45737 7 7.50157 7C10.5458 7 13.0031 9.41867 13.0031 12.3973ZM19.0304 12.3973C19.0304 15.1973 17.7956 17.473 16.2796 17.473C14.7636 17.473 13.5288 15.1973 13.5288 12.3973C13.5288 9.59739 14.7636 7.32169 16.2796 7.32169C17.7956 7.32169 19.0304 9.58547 19.0304 12.3973ZM21.5 12.3973C21.5 14.9113 21.0721 16.9487 20.5342 16.9487C19.9962 16.9487 19.5683 14.9113 19.5683 12.3973C19.5683 9.88334 19.9962 7.84594 20.5342 7.84594C21.0721 7.84594 21.5 9.88334 21.5 12.3973Z" fill="#5C5F66"/>
</svg>
