<svg width="18" height="19" viewBox="0 0 18 19" fill="none" xmlns="http://www.w3.org/2000/svg">
<path fill-rule="evenodd" clip-rule="evenodd" d="M1.12497 9.49998C1.12497 9.35079 1.18423 9.20772 1.28972 9.10223C1.39521 8.99674 1.53829 8.93748 1.68747 8.93748H14.9546L11.4142 5.39823C11.3619 5.34593 11.3204 5.28384 11.2921 5.21551C11.2638 5.14718 11.2493 5.07394 11.2493 4.99998C11.2493 4.92602 11.2638 4.85278 11.2921 4.78445C11.3204 4.71611 11.3619 4.65403 11.4142 4.60173C11.4665 4.54943 11.5286 4.50794 11.5969 4.47964C11.6653 4.45134 11.7385 4.43677 11.8125 4.43677C11.8864 4.43677 11.9597 4.45134 12.028 4.47964C12.0963 4.50794 12.1584 4.54943 12.2107 4.60173L16.7107 9.10173C16.7631 9.15398 16.8047 9.21605 16.833 9.28439C16.8614 9.35273 16.876 9.42599 16.876 9.49998C16.876 9.57397 16.8614 9.64723 16.833 9.71557C16.8047 9.7839 16.7631 9.84598 16.7107 9.89823L12.2107 14.3982C12.1584 14.4505 12.0963 14.492 12.028 14.5203C11.9597 14.5486 11.8864 14.5632 11.8125 14.5632C11.7385 14.5632 11.6653 14.5486 11.5969 14.5203C11.5286 14.492 11.4665 14.4505 11.4142 14.3982C11.3619 14.3459 11.3204 14.2838 11.2921 14.2155C11.2638 14.1472 11.2493 14.0739 11.2493 14C11.2493 13.926 11.2638 13.8528 11.2921 13.7844C11.3204 13.7161 11.3619 13.654 11.4142 13.6017L14.9546 10.0625H1.68747C1.53829 10.0625 1.39521 10.0032 1.28972 9.89773C1.18423 9.79224 1.12497 9.64916 1.12497 9.49998Z" fill="#FFCC4D"/>
</svg>
