<svg width="58" height="58" viewBox="0 0 58 58" fill="none" xmlns="http://www.w3.org/2000/svg">
<rect width="58" height="58" rx="29" fill="#FFF6E0"/>
<path d="M24 38.0001C24 38.5305 23.7893 39.0392 23.4142 39.4143C23.0392 39.7894 22.5305 40.0001 22 40.0001C21.4696 40.0001 20.9609 39.7894 20.5858 39.4143C20.2107 39.0392 20 38.5305 20 38.0001M24 38.0001C24 37.4696 23.7893 36.9609 23.4142 36.5859C23.0392 36.2108 22.5305 36.0001 22 36.0001C21.4696 36.0001 20.9609 36.2108 20.5858 36.5859C20.2107 36.9609 20 37.4696 20 38.0001M24 38.0001H32M20 38.0001H17.5C17.1022 38.0001 16.7207 37.842 16.4394 37.5607C16.1581 37.2794 16 36.8979 16 36.5001V32.0001M32 38.0001H35M32 38.0001V32.0001M16 32.0001V21.8201C15.9979 21.455 16.1313 21.102 16.3744 20.8296C16.6175 20.5572 16.953 20.3847 17.316 20.3454C21.7601 19.8845 26.2399 19.8845 30.684 20.3454C31.4374 20.4227 32 21.0627 32 21.8201V23.0974M16 32.0001H32M39 38.0001C39 38.5305 38.7893 39.0392 38.4142 39.4143C38.0392 39.7894 37.5305 40.0001 37 40.0001C36.4696 40.0001 35.9609 39.7894 35.5858 39.4143C35.2107 39.0392 35 38.5305 35 38.0001M39 38.0001C39 37.4696 38.7893 36.9609 38.4142 36.5859C38.0392 36.2108 37.5305 36.0001 37 36.0001C36.4696 36.0001 35.9609 36.2108 35.5858 36.5859C35.2107 36.9609 35 37.4696 35 38.0001M39 38.0001H40.5C41.328 38.0001 42.0054 37.3281 41.9534 36.5014C41.6856 32.0982 40.2027 27.8554 37.6694 24.2441C37.4278 23.9061 37.1127 23.6272 36.7478 23.4286C36.3829 23.23 35.9777 23.1168 35.5627 23.0974H32M32 23.0974V32.0001" stroke="#FFCC4D" stroke-width="2" stroke-linecap="round" stroke-linejoin="round"/>
</svg>
