<svg width="20" height="20" viewBox="0 0 20 20" fill="none" xmlns="http://www.w3.org/2000/svg">
<g opacity="0.5">
<path d="M20 10.0001C20 4.73986 15.5229 0.475586 10 0.475586C4.47716 0.475586 0 4.73986 0 10.0001C0 15.2603 4.47716 19.5246 10 19.5246C15.5229 19.5246 20 15.2603 20 10.0001Z" fill="#FF0209"/>
<path d="M14.245 14.2186C13.9471 14.2493 13.6421 14.2547 13.3498 14.254C11.0696 14.252 8.78934 14.25 6.50981 14.2487C5.79236 14.2487 5.01097 14.2266 4.45654 13.7922C3.83185 13.3016 3.70186 12.451 3.65126 11.6813C3.58099 10.6265 3.57537 9.5684 3.63299 8.51295C3.66461 7.93335 3.72012 7.3397 3.98223 6.81499C4.17055 6.43818 4.48465 6.09953 4.88659 5.9215C5.35388 5.71469 5.84296 5.7515 6.34608 5.75083C7.5505 5.7495 8.75491 5.74883 9.95933 5.74749C11.2115 5.74615 12.4644 5.74548 13.7166 5.74414C14.3083 5.74414 14.9435 5.75552 15.4263 6.08146C16.0496 6.50176 16.2189 7.30155 16.2969 8.02504C16.441 9.35758 16.4431 10.7042 16.3025 12.0367C16.2442 12.5862 16.1472 13.1671 15.7671 13.5841C15.3904 13.9977 14.8318 14.157 14.2457 14.2179L14.245 14.2186Z" fill="white"/>
<path d="M12.0408 10.001L8.64258 8.13232V11.8696L12.0408 10.001Z" fill="#FF0209"/>
</g>
</svg>

